<?xml version="1.0" standalone="no"?>
<!DOCTYPE svg PUBLIC "-//W3C//DTD SVG 20010904//EN"
 "http://www.w3.org/TR/2001/REC-SVG-20010904/DTD/svg10.dtd">
<svg version="1.0" xmlns="http://www.w3.org/2000/svg"
 width="991.000000pt" height="991.000000pt" viewBox="0 0 991.000000 991.000000"
 preserveAspectRatio="xMidYMid meet">
<metadata>
Created by potrace 1.13, written by Peter Selinger 2001-2015
</metadata>
<g transform="translate(0.000000,991.000000) scale(0.100000,-0.100000)"
fill="#000000" stroke="none">
<path d="M4752 9894 c-12 -13 -40 -15 -159 -13 -98 1 -148 -2 -156 -10 -7 -7
-47 -11 -103 -11 -51 0 -96 -4 -99 -10 -3 -5 -35 -10 -69 -10 -44 0 -67 -5
-76 -15 -8 -10 -31 -15 -66 -15 -29 0 -56 -4 -59 -10 -3 -5 -23 -10 -44 -10
-22 0 -44 -6 -51 -15 -7 -8 -29 -15 -50 -15 -36 0 -94 -22 -105 -41 -4 -5 -19
-9 -34 -9 -16 0 -37 -10 -51 -25 -14 -15 -35 -25 -51 -25 -15 0 -31 -4 -34
-10 -3 -5 -15 -10 -25 -10 -10 0 -27 -11 -38 -25 -11 -14 -27 -25 -35 -25 -8
0 -20 -7 -27 -15 -7 -8 -19 -15 -27 -15 -20 0 -173 -151 -173 -171 0 -8 -11
-26 -25 -39 -14 -13 -25 -32 -25 -42 0 -10 -4 -18 -10 -18 -5 0 -10 -13 -10
-29 0 -16 -7 -34 -15 -41 -13 -11 -15 -82 -15 -526 l0 -514 923 0 c915 0 924
0 942 -20 14 -16 16 -23 7 -32 -15 -15 -17 -198 -2 -198 15 0 12 -19 -6 -37
-11 -12 -18 -13 -27 -4 -14 14 -193 15 -202 1 -4 -7 -460 -10 -1334 -10 -1169
0 -1330 -2 -1341 -15 -8 -9 -30 -15 -56 -15 -24 0 -44 -4 -44 -10 0 -5 -15
-10 -34 -10 -21 0 -36 -6 -40 -15 -3 -8 -14 -15 -24 -15 -10 0 -27 -9 -37 -20
-20 -22 -71 -50 -90 -50 -6 0 -22 -11 -35 -25 -13 -14 -29 -25 -35 -25 -15 0
-218 -205 -226 -228 -4 -9 -16 -26 -28 -36 -11 -11 -21 -25 -21 -33 0 -8 -9
-24 -20 -36 -24 -25 -50 -74 -50 -94 0 -7 -7 -16 -15 -19 -8 -4 -15 -14 -15
-24 0 -11 -4 -22 -10 -25 -5 -3 -10 -19 -10 -34 0 -16 -7 -34 -15 -41 -8 -7
-15 -21 -15 -31 0 -11 -4 -19 -10 -19 -5 0 -10 -15 -10 -34 0 -21 -6 -36 -15
-40 -10 -4 -15 -20 -15 -50 0 -25 -4 -48 -10 -51 -5 -3 -10 -26 -10 -50 0 -29
-5 -45 -15 -49 -11 -4 -15 -22 -15 -75 0 -38 -4 -73 -10 -76 -5 -3 -10 -35
-10 -69 0 -44 -5 -67 -15 -76 -23 -19 -23 -871 0 -890 11 -9 15 -34 15 -101 0
-48 5 -91 10 -94 6 -3 10 -30 10 -59 0 -35 5 -58 15 -66 10 -8 15 -31 15 -66
0 -29 5 -56 10 -59 5 -3 10 -19 10 -34 0 -16 7 -34 15 -41 8 -7 15 -25 15 -41
0 -15 5 -31 10 -34 6 -3 10 -23 10 -44 0 -22 6 -44 15 -51 8 -7 15 -20 16 -29
0 -9 9 -29 20 -46 10 -16 22 -37 25 -45 10 -25 34 -74 43 -90 5 -8 16 -31 25
-50 8 -19 31 -51 50 -69 20 -19 36 -42 36 -50 0 -21 170 -191 190 -191 9 0 34
-18 55 -40 26 -27 48 -40 65 -40 15 0 37 -11 50 -25 14 -15 35 -25 52 -25 15
0 28 -4 28 -10 0 -5 8 -10 19 -10 10 0 24 -7 31 -15 9 -11 32 -15 81 -15 39 0
69 -4 69 -10 0 -6 121 -10 343 -10 320 0 345 1 360 18 15 17 17 72 17 580 0
368 3 562 10 562 6 0 10 20 10 44 0 26 6 48 15 56 9 8 15 30 15 56 0 24 5 44
10 44 6 0 10 8 10 19 0 10 7 24 15 31 8 7 15 22 15 35 0 24 26 81 41 90 5 4 9
14 9 24 0 9 16 32 35 51 19 19 35 39 35 45 0 14 162 175 176 175 6 0 21 11 34
25 13 14 31 25 41 25 9 0 22 7 29 15 7 8 16 13 20 10 4 -3 13 2 20 10 7 8 20
15 30 15 10 0 23 6 29 14 7 8 20 12 30 9 10 -2 25 3 34 11 8 9 29 16 46 16 17
0 31 5 31 10 0 6 24 10 54 10 35 0 60 5 70 15 13 13 151 15 1120 15 726 0
1107 3 1111 10 3 6 30 10 59 10 35 0 58 5 66 15 8 9 30 15 56 15 24 0 44 5 44
10 0 6 13 10 29 10 16 0 34 7 41 15 7 8 18 15 25 15 16 0 73 29 80 41 4 5 15
9 26 9 10 0 19 5 19 10 0 6 8 10 18 10 10 0 36 18 57 40 21 22 45 40 53 40 19
0 122 102 122 121 0 8 11 26 25 39 14 13 25 30 25 38 0 8 11 23 25 34 16 13
25 29 25 48 0 16 5 32 10 35 6 3 10 19 10 34 0 16 7 34 15 41 8 7 15 25 15 41
0 15 5 31 10 34 6 3 10 30 10 59 0 35 5 58 15 66 13 11 15 137 15 1020 0 887
-2 1009 -15 1014 -10 4 -15 20 -15 50 0 25 -4 48 -10 51 -5 3 -10 19 -10 34 0
16 -10 37 -25 51 -14 13 -25 29 -25 36 0 6 -7 17 -15 24 -8 7 -15 19 -15 27 0
20 -201 223 -221 223 -9 0 -24 9 -34 20 -20 22 -71 50 -90 50 -6 0 -22 11 -35
25 -13 14 -29 25 -36 25 -6 0 -17 7 -24 15 -7 8 -25 15 -41 15 -15 0 -31 5
-34 10 -3 6 -14 10 -24 10 -10 0 -24 7 -31 15 -7 8 -25 15 -41 15 -16 0 -29 5
-29 10 0 6 -20 10 -44 10 -26 0 -48 6 -56 15 -7 8 -25 15 -41 15 -15 0 -31 5
-34 10 -3 6 -24 10 -46 10 -23 0 -47 7 -55 15 -11 11 -37 15 -89 15 -41 0 -77
5 -80 10 -3 6 -48 10 -99 10 -56 0 -96 4 -104 12 -7 7 -55 10 -147 9 -115 -2
-136 0 -141 13 -9 23 -362 23 -382 0z m-718 -589 c8 -8 19 -15 25 -15 6 0 19
-4 29 -9 9 -5 25 -12 35 -15 9 -3 17 -14 17 -24 0 -10 23 -40 50 -67 42 -42
50 -55 50 -87 0 -20 5 -40 10 -43 6 -3 10 -37 10 -75 0 -38 -4 -72 -10 -75 -5
-3 -10 -19 -10 -34 0 -16 -7 -34 -15 -41 -8 -7 -15 -19 -15 -26 0 -18 -107
-124 -125 -124 -8 0 -17 -4 -20 -10 -3 -5 -19 -10 -34 -10 -16 0 -34 -7 -41
-15 -9 -11 -33 -15 -92 -15 -61 0 -80 3 -84 15 -4 9 -19 15 -36 15 -21 0 -39
10 -62 35 -19 19 -39 35 -46 35 -20 0 -50 31 -50 52 0 10 -7 21 -15 24 -8 4
-15 14 -15 24 0 11 -4 22 -10 25 -17 11 -12 227 6 263 8 18 19 34 25 37 5 4 9
14 9 25 0 10 16 32 35 49 37 32 43 46 23 54 -8 2 -9 8 -4 13 5 5 11 4 13 -3 3
-7 13 -13 22 -13 21 0 78 27 86 41 4 5 55 9 115 9 83 0 112 -4 124 -15z"/>
<path d="M0 1090 l0 -1090 4955 0 4955 0 0 1090 0 1090 -4955 0 -4955 0 0
-1090z m6590 185 l0 -756 -147 3 -148 3 -3 734 c-2 689 -1 735 15 752 15 15
37 18 151 18 l132 1 0 -755z m422 744 c3 -9 10 -8 25 1 11 7 28 10 37 7 15 -6
17 -34 16 -274 0 -148 0 -275 0 -283 0 -8 17 3 43 28 23 23 50 42 60 42 9 0
17 5 17 10 0 6 8 10 19 10 10 0 24 7 31 15 9 11 34 15 96 15 60 0 87 -4 98
-15 8 -8 28 -15 45 -15 17 0 31 -4 31 -10 0 -5 8 -10 17 -10 23 0 113 -89 113
-112 0 -10 5 -18 10 -18 6 0 10 -14 10 -31 0 -17 7 -37 15 -45 13 -13 15 -71
15 -399 0 -211 -3 -390 -6 -399 -5 -14 -28 -16 -150 -16 l-144 0 0 369 c0 319
-2 370 -15 375 -8 3 -15 15 -15 26 0 13 -7 20 -20 20 -11 0 -23 7 -26 15 -5
12 -26 15 -98 15 -79 0 -94 -3 -109 -20 -9 -11 -17 -26 -17 -33 0 -7 -4 -17
-10 -23 -6 -6 -11 -151 -12 -374 l-3 -365 -147 -3 -148 -3 0 737 c0 672 1 739
17 756 13 15 32 18 109 18 60 0 94 -4 96 -11z m1194 -3 c16 -17 19 -36 4 -36
-5 0 -11 -44 -12 -97 l-3 -98 -124 -3 c-116 -2 -126 -1 -148 19 -21 20 -23 31
-23 107 0 120 1 121 163 121 99 1 132 -2 143 -13z m-5876 -96 c0 -5 24 -10 54
-10 35 0 58 -5 66 -15 7 -8 23 -15 36 -15 22 0 40 -7 84 -32 8 -4 24 -12 35
-17 23 -11 114 -106 133 -138 6 -13 12 -29 12 -36 0 -7 5 -18 11 -24 15 -15
14 -316 -1 -321 -5 -2 -10 -11 -11 -20 0 -9 -9 -30 -20 -47 -20 -32 -24 -39
-33 -67 -3 -10 -13 -18 -22 -18 -9 0 -32 -16 -51 -35 -19 -19 -39 -35 -46 -35
-7 0 -20 -7 -30 -14 -10 -8 -26 -12 -36 -9 -9 2 -23 -3 -30 -11 -9 -10 -30
-16 -57 -16 -24 0 -44 -4 -44 -10 0 -6 -72 -11 -182 -12 l-183 -3 -5 -245 -5
-245 -147 -3 -148 -3 0 706 0 705 310 0 c200 0 310 -4 310 -10z m2180 0 c0 -5
24 -10 54 -10 35 0 58 -5 66 -15 7 -8 25 -15 41 -15 15 0 31 -4 34 -10 3 -5
19 -10 34 -10 16 0 37 -10 51 -25 13 -14 31 -25 40 -25 20 0 130 -112 130
-133 0 -8 9 -22 20 -32 11 -10 20 -24 20 -30 0 -7 7 -18 15 -25 8 -7 15 -25
15 -41 0 -15 5 -31 10 -34 6 -3 10 -30 10 -59 0 -35 5 -58 15 -66 12 -10 15
-42 15 -165 0 -123 -3 -155 -15 -165 -10 -8 -15 -31 -15 -66 0 -30 -4 -54 -10
-54 -5 0 -10 -16 -10 -35 0 -19 -4 -35 -8 -35 -8 0 -42 -69 -42 -84 0 -4 -11
-17 -24 -29 -13 -12 -25 -31 -27 -42 -3 -11 -13 -21 -24 -23 -10 -3 -37 -23
-60 -46 -45 -46 -96 -76 -130 -76 -13 0 -28 -7 -35 -15 -7 -9 -21 -13 -34 -9
-14 3 -28 -1 -35 -10 -12 -14 -55 -16 -328 -16 -273 0 -314 2 -320 15 -3 9 2
24 11 34 14 16 16 82 16 664 0 425 -3 647 -10 647 -14 0 -13 18 3 35 10 12 60
14 270 15 165 0 257 -4 257 -10z m1310 -345 c7 -8 22 -15 35 -15 28 0 85 -28
106 -52 9 -10 22 -18 30 -18 18 0 59 -40 59 -58 0 -8 9 -23 21 -33 12 -10 22
-32 23 -50 1 -18 8 -35 14 -37 7 -2 12 -19 12 -38 0 -19 5 -34 10 -34 6 0 10
-57 10 -150 l0 -150 -307 -2 c-314 -3 -334 -6 -298 -41 8 -9 15 -20 15 -25 0
-13 32 -75 46 -89 7 -7 19 -13 27 -13 8 0 20 -7 27 -15 18 -22 252 -22 270 0
7 8 21 15 31 15 11 0 19 5 19 10 0 16 62 11 82 -7 10 -9 18 -28 18 -43 0 -14
4 -30 9 -35 15 -16 16 -82 2 -99 -18 -21 -82 -51 -102 -48 -9 2 -22 -4 -29
-13 -8 -9 -29 -15 -56 -15 -24 0 -44 -4 -44 -10 0 -13 -247 -13 -255 0 -3 6
-19 10 -34 10 -16 0 -34 7 -41 15 -7 8 -16 13 -20 10 -4 -3 -13 2 -20 10 -7 8
-19 15 -26 15 -30 0 -124 72 -124 95 0 6 -11 22 -25 35 -14 13 -25 31 -25 41
0 9 -7 22 -15 29 -8 7 -15 25 -15 41 0 15 -4 31 -10 34 -6 4 -10 82 -10 201 0
123 4 194 10 194 6 0 10 8 10 19 0 10 7 24 15 31 8 7 15 23 15 36 0 14 6 34
12 47 18 32 100 117 113 117 7 0 22 11 35 25 13 14 32 25 42 25 10 0 18 5 18
10 0 6 15 10 34 10 18 0 39 7 46 15 10 12 37 15 120 15 83 0 110 -3 120 -15z
m-2639 -37 c11 -12 19 -36 19 -59 0 -21 5 -41 10 -44 6 -3 10 -19 10 -34 0
-16 7 -34 15 -41 9 -7 15 -29 15 -51 0 -21 5 -41 10 -44 6 -3 10 -20 10 -36 0
-17 7 -37 15 -46 9 -8 13 -23 10 -33 -3 -9 1 -23 10 -30 9 -7 15 -29 15 -54 0
-23 4 -46 9 -51 5 -6 11 -23 13 -40 2 -16 8 -30 13 -30 6 0 11 14 13 30 2 17
8 34 13 40 5 5 9 26 9 46 0 20 7 42 15 49 8 7 15 28 15 46 0 19 5 34 10 34 6
0 10 13 10 29 0 16 7 34 15 41 9 8 15 29 15 56 0 23 5 46 10 49 6 3 10 20 10
36 0 17 6 32 15 35 9 4 15 19 15 40 0 19 4 34 9 34 5 0 11 10 13 23 3 22 6 22
161 25 145 2 179 -3 147 -23 -5 -3 -10 -18 -10 -33 0 -15 -7 -35 -14 -45 -8
-10 -12 -26 -9 -36 2 -9 -3 -23 -11 -30 -9 -8 -16 -26 -16 -42 0 -15 -4 -31
-10 -34 -5 -3 -10 -19 -10 -34 0 -16 -7 -34 -15 -41 -8 -7 -15 -21 -15 -31 0
-11 -4 -19 -10 -19 -5 0 -10 -13 -10 -29 0 -16 -7 -34 -15 -41 -8 -7 -15 -28
-15 -46 0 -19 -4 -34 -10 -34 -5 0 -10 -13 -10 -29 0 -16 -7 -34 -15 -41 -8
-7 -15 -21 -15 -31 0 -10 -4 -21 -10 -24 -5 -3 -10 -19 -10 -34 0 -16 -7 -34
-15 -41 -9 -7 -15 -29 -15 -51 0 -21 -4 -41 -10 -44 -5 -3 -10 -14 -10 -24 0
-10 -7 -24 -15 -31 -8 -7 -15 -25 -15 -41 0 -16 -4 -29 -10 -29 -5 0 -10 -16
-10 -35 0 -22 -6 -38 -15 -41 -9 -4 -15 -19 -15 -40 0 -19 -4 -34 -10 -34 -5
0 -10 -8 -10 -19 0 -10 -7 -24 -15 -31 -8 -7 -15 -25 -15 -41 0 -15 -4 -31
-10 -34 -5 -3 -10 -14 -10 -25 0 -10 -7 -20 -15 -24 -8 -3 -15 -14 -15 -24 0
-10 -10 -27 -21 -38 -12 -10 -25 -29 -30 -41 -5 -13 -15 -23 -22 -23 -7 0 -24
-11 -37 -25 -14 -15 -35 -25 -51 -25 -15 0 -31 -4 -34 -10 -8 -13 -195 -13
-195 -1 0 5 -10 11 -22 13 -20 3 -23 10 -26 52 -2 28 1 59 7 70 6 12 12 39 13
61 l3 40 70 3 c60 3 74 7 97 29 16 15 28 35 28 44 0 10 4 20 9 24 29 18 56
125 31 125 -5 0 -10 13 -10 29 0 16 -7 34 -15 41 -8 7 -15 25 -15 41 0 15 -4
31 -10 34 -5 3 -10 19 -10 34 0 16 -7 34 -15 41 -8 7 -15 21 -15 31 0 11 -4
19 -10 19 -5 0 -10 16 -10 35 0 22 -6 38 -15 41 -9 4 -15 19 -15 40 0 19 -4
34 -10 34 -5 0 -10 8 -10 19 0 10 -7 24 -15 31 -8 7 -15 25 -15 41 0 15 -4 31
-10 34 -5 3 -10 19 -10 34 0 16 -7 34 -15 41 -8 7 -15 25 -15 41 0 15 -4 31
-10 34 -5 3 -10 19 -10 34 0 16 -7 34 -15 41 -8 7 -15 25 -15 41 0 15 -4 31
-10 34 -5 3 -10 14 -10 25 0 10 -7 20 -15 24 -15 5 -22 76 -8 89 3 4 69 7 146
7 131 0 141 -1 158 -22z m5019 -466 c0 -337 3 -491 11 -499 8 -8 7 -17 -3 -32
-12 -20 -21 -21 -140 -21 -115 0 -130 2 -148 20 -19 19 -20 33 -20 502 0 445
1 483 18 499 14 15 36 18 150 18 l132 1 0 -488z"/>
<path d="M2012 1473 l3 -208 174 -3 c126 -2 177 1 188 10 8 7 25 17 36 23 12
6 27 21 33 34 6 12 17 28 23 34 6 6 11 21 11 34 0 13 6 32 12 43 10 16 10 24
0 40 -6 11 -12 36 -12 56 0 30 -8 44 -45 80 -24 24 -51 44 -59 44 -8 0 -18 5
-21 10 -4 6 -74 10 -176 10 l-169 0 2 -207z"/>
<path d="M4413 1682 c-95 -2 -123 -6 -123 -16 0 -7 -7 -19 -15 -26 -8 -7 -15
-20 -15 -30 0 -10 7 -23 15 -30 13 -11 15 -67 15 -396 0 -352 -1 -384 -17
-393 -16 -8 -15 -11 7 -30 21 -17 39 -20 106 -21 61 0 85 4 94 15 7 8 29 15
50 15 49 0 87 20 135 72 44 47 65 80 65 102 0 7 7 19 15 26 10 8 15 31 15 66
0 30 5 54 10 54 6 0 10 51 10 134 0 79 -4 137 -10 141 -5 3 -10 31 -10 61 0
39 -4 56 -15 60 -8 4 -15 14 -15 24 0 11 -4 22 -10 25 -5 3 -10 13 -10 22 0
30 -97 103 -137 103 -7 0 -13 4 -13 9 0 14 -19 16 -147 13z"/>
<path d="M5675 1350 c-3 -5 -19 -10 -34 -10 -34 0 -91 -63 -91 -102 0 -6 -7
-20 -16 -30 -14 -14 -14 -20 -4 -33 10 -12 39 -15 151 -15 82 0 140 -4 144
-10 13 -21 25 3 25 49 0 31 -5 53 -15 61 -8 7 -15 20 -15 30 0 29 -33 50 -78
50 -23 0 -42 5 -42 10 0 6 -4 10 -9 10 -6 0 -13 -4 -16 -10z"/>
</g>
</svg>
