<?xml version="1.0" standalone="no"?>
<!DOCTYPE svg PUBLIC "-//W3C//DTD SVG 20010904//EN"
 "http://www.w3.org/TR/2001/REC-SVG-20010904/DTD/svg10.dtd">
<svg version="1.0" xmlns="http://www.w3.org/2000/svg"
 width="991.000000pt" height="991.000000pt" viewBox="0 0 991.000000 991.000000"
 preserveAspectRatio="xMidYMid meet">
<metadata>
Created by potrace 1.13, written by Peter Selinger 2001-2015
</metadata>
<g transform="translate(0.000000,991.000000) scale(0.100000,-0.100000)"
fill="#000000" stroke="none">
<path d="M4460 9876 c0 -22 -9 -45 -24 -63 l-24 -28 -254 -1 c-159 0 -261 -5
-273 -11 -10 -6 -30 -28 -45 -49 -38 -57 -59 -64 -198 -64 -119 0 -123 -1
-145 -26 -12 -14 -42 -45 -67 -69 -25 -25 -51 -50 -58 -57 -7 -7 -29 -31 -50
-53 -20 -22 -50 -49 -66 -60 -27 -19 -30 -27 -35 -105 -6 -77 -9 -85 -36 -104
-16 -12 -42 -32 -57 -46 l-29 -25 0 -445 1 -444 23 -24 24 -23 942 -2 943 -2
24 -28 c19 -23 24 -39 24 -87 0 -75 -12 -100 -62 -131 -22 -13 -51 -43 -64
-66 -16 -26 -36 -45 -57 -52 -22 -8 -455 -11 -1504 -11 -994 1 -1479 -2 -1492
-9 -11 -6 -29 -27 -41 -46 -32 -53 -56 -65 -125 -65 -67 0 -96 -14 -125 -63
-10 -16 -40 -46 -67 -66 l-48 -37 -6 -78 c-6 -85 -3 -81 -95 -152 -24 -18 -28
-29 -31 -85 -6 -98 -9 -105 -63 -138 -29 -18 -52 -40 -55 -53 -2 -13 -6 -108
-7 -212 l-3 -189 -29 -21 c-16 -12 -43 -33 -60 -48 l-31 -26 -3 -479 c-2 -327
0 -490 8 -516 8 -26 22 -44 50 -62 69 -43 70 -48 70 -258 l0 -189 33 -29 c17
-16 44 -40 60 -53 24 -22 27 -31 27 -89 0 -71 18 -105 71 -132 40 -21 59 -64
59 -135 0 -51 4 -64 22 -80 29 -25 103 -99 128 -127 16 -19 30 -23 75 -23 71
0 119 -20 139 -58 9 -17 28 -40 42 -51 26 -21 36 -21 461 -21 l435 0 29 29 29
29 0 627 0 627 29 26 c16 15 43 37 59 49 28 21 30 28 34 99 3 73 5 77 38 105
19 15 46 40 60 54 14 14 43 43 65 65 49 48 68 68 110 114 31 34 37 36 95 36
75 0 91 8 130 66 20 29 41 47 58 50 15 3 609 6 1320 7 l1294 2 26 32 c15 18
36 44 48 59 19 25 29 28 104 33 73 6 85 9 99 31 9 13 36 43 61 67 61 58 65 62
108 108 20 22 50 49 66 60 27 19 30 27 35 105 6 77 9 85 36 104 16 12 41 32
57 46 l29 25 0 1125 0 1125 -29 25 c-16 14 -41 34 -57 46 -27 19 -30 27 -36
104 -5 78 -8 86 -35 105 -37 26 -83 72 -109 109 -19 27 -27 30 -104 35 -72 6
-86 10 -100 29 -59 85 -69 92 -135 92 -74 0 -102 13 -136 64 -15 21 -35 43
-45 49 -12 6 -114 11 -273 11 l-254 1 -24 28 c-15 18 -24 41 -24 63 l0 34
-495 0 -495 0 0 -34z m-529 -476 c10 -6 28 -28 39 -50 26 -51 45 -60 125 -60
57 0 69 -3 90 -25 21 -20 25 -34 25 -84 0 -81 11 -104 64 -135 24 -14 48 -36
51 -47 10 -29 -12 -65 -47 -80 -50 -20 -68 -54 -68 -125 0 -34 -3 -70 -6 -79
-10 -26 -60 -45 -119 -45 -66 0 -90 -10 -110 -49 -34 -67 -89 -83 -122 -35
-59 84 -60 84 -133 84 -58 0 -73 4 -97 24 -25 21 -28 31 -31 100 -4 81 -5 82
-86 139 -18 12 -26 27 -26 47 0 20 8 35 26 47 84 59 84 59 84 135 0 64 3 72
29 99 27 26 36 29 96 29 72 0 60 -8 149 93 27 30 37 32 67 17z"/>
<path d="M0 1055 l0 -1055 4955 0 4955 0 0 1055 0 1055 -838 0 c-923 0 -882 3
-882 -60 0 -27 32 -70 52 -70 4 0 17 -9 28 -20 29 -29 26 -65 -7 -87 -15 -10
-50 -42 -78 -71 -38 -39 -63 -56 -93 -63 -48 -10 -117 1 -139 24 -17 16 -36
92 -29 116 2 9 7 28 10 43 4 19 21 36 51 54 65 37 74 98 19 122 -35 17 -863
17 -898 0 -53 -23 -46 -83 14 -117 59 -33 65 -49 65 -194 0 -129 0 -129 28
-153 27 -23 35 -24 158 -24 130 0 130 0 155 -27 31 -36 91 -96 127 -127 27
-25 27 -25 27 -156 l0 -132 33 -29 c17 -16 44 -40 60 -53 l27 -25 0 -188 c-1
-206 -3 -217 -60 -255 -19 -13 -46 -41 -61 -63 -41 -60 -111 -81 -188 -54 -59
21 -61 35 -61 376 -1 332 1 320 -57 362 -18 12 -47 42 -63 67 -46 66 -91 61
-136 -15 -10 -16 -34 -39 -55 -50 -68 -39 -67 -77 6 -131 36 -26 55 -48 56
-63 7 -102 4 -338 -3 -365 -6 -21 -25 -42 -53 -62 -24 -16 -53 -46 -66 -66
-35 -57 -112 -79 -188 -53 -64 22 -61 -7 -61 808 1 580 -2 745 -12 760 -34 55
-190 54 -219 -1 -8 -15 -11 -243 -10 -753 2 -832 5 -795 -71 -815 -55 -15
-127 -5 -153 20 -20 20 -20 35 -25 780 l-5 759 -23 23 -23 23 -3134 3 -3135 2
0 -1055z m2456 890 c71 -87 67 -85 132 -85 33 0 72 -4 87 -10 31 -12 59 -72
51 -111 -3 -15 -1 -43 5 -63 17 -63 30 -66 247 -66 192 0 193 0 217 -25 24
-23 25 -30 25 -149 0 -69 5 -135 11 -148 6 -13 28 -35 49 -50 22 -15 51 -45
64 -67 32 -50 60 -60 95 -33 l26 19 5 207 c6 261 -5 246 181 246 121 0 129 -1
156 -24 28 -24 28 -26 31 -148 3 -140 -3 -158 -62 -198 -21 -15 -43 -35 -49
-46 -6 -11 -11 -74 -11 -147 l-1 -129 -32 -26 c-18 -15 -45 -37 -60 -49 -28
-21 -28 -22 -33 -163 -5 -142 -5 -142 -33 -164 -80 -60 -87 -71 -87 -135 0
-76 -12 -101 -61 -132 -22 -13 -49 -38 -59 -55 -39 -63 -51 -68 -168 -70 -184
-4 -219 19 -210 139 4 54 8 63 39 88 32 27 50 44 111 106 14 16 40 38 57 51
22 17 31 32 31 53 0 25 -8 35 -50 61 -30 19 -53 41 -56 55 -4 13 -7 78 -8 144
l-1 121 -32 26 c-18 15 -45 37 -60 49 -28 21 -28 22 -33 161 -3 97 -9 144 -19
155 -19 24 -85 39 -136 32 -65 -10 -84 -36 -89 -124 -4 -77 -14 -96 -70 -131
-17 -10 -42 -37 -55 -59 -14 -22 -35 -44 -48 -50 -15 -7 -114 -11 -263 -11
-154 0 -248 -4 -263 -11 -41 -19 -47 -48 -47 -244 0 -180 -1 -184 -24 -212
-22 -26 -30 -28 -96 -28 -72 0 -72 0 -105 40 -33 40 -43 50 -109 110 l-36 33
0 559 c0 617 -4 580 66 623 19 13 46 40 60 62 14 21 35 43 47 48 12 5 163 8
335 7 l314 -2 24 -30z m2233 -4 c14 -19 39 -46 55 -60 16 -15 43 -41 61 -60
47 -48 67 -68 117 -119 67 -66 79 -78 120 -115 l37 -34 0 -359 c1 -231 -3
-371 -10 -392 -7 -21 -25 -42 -50 -58 -21 -13 -50 -42 -64 -64 -32 -50 -51
-60 -119 -60 -72 0 -101 -14 -131 -66 -14 -23 -35 -46 -47 -50 -39 -12 -632
-8 -655 5 -12 6 -26 26 -32 43 -7 23 -10 249 -8 705 3 717 2 693 52 714 11 4
161 7 334 6 l314 -2 26 -34z m1227 -358 c23 -27 73 -78 124 -127 14 -14 39
-39 56 -58 17 -18 45 -45 63 -59 l31 -27 0 -132 0 -132 -70 -68 c-38 -38 -70
-73 -70 -78 0 -24 -58 -32 -236 -32 -183 0 -185 0 -209 -25 -31 -31 -31 -49 0
-80 24 -25 26 -25 210 -25 247 0 255 -4 255 -126 0 -56 -4 -68 -25 -89 -13
-14 -30 -25 -37 -26 -97 -6 -486 -2 -505 6 -14 6 -37 28 -52 50 -14 22 -43 51
-63 65 -21 14 -50 43 -67 66 -16 23 -45 51 -65 63 -19 12 -38 31 -41 42 -12
37 -8 504 4 527 6 12 27 32 46 45 19 13 48 42 64 64 16 22 45 50 65 63 20 12
43 35 51 50 8 16 27 38 41 49 25 20 39 21 216 21 l189 0 25 -27z m2213 12 c16
-8 38 -30 49 -49 11 -19 39 -46 61 -60 22 -14 45 -34 51 -45 6 -13 10 -152 10
-391 l0 -372 -36 -33 c-66 -60 -76 -70 -109 -110 -33 -40 -33 -40 -105 -40
-66 0 -74 2 -96 28 l-24 28 0 499 c0 274 3 506 6 515 16 41 137 59 193 30z"/>
<path d="M2008 1580 c-29 -29 -30 -34 -26 -102 3 -63 7 -73 32 -92 35 -27 85
-76 111 -111 40 -53 172 -52 210 1 23 32 70 79 112 111 26 20 28 25 28 98 0
72 -2 78 -28 101 -28 24 -32 24 -218 24 l-191 0 -30 -30z"/>
<path d="M4365 1585 c-14 -13 -25 -32 -26 -42 -6 -160 2 -746 10 -761 16 -30
64 -45 128 -40 52 5 60 9 89 44 36 43 40 47 102 103 l43 39 -3 317 -3 317 -28
24 c-27 23 -35 24 -158 24 -125 0 -131 -1 -154 -25z"/>
<path d="M5644 1363 c-40 -8 -67 -49 -72 -107 -6 -72 3 -102 34 -122 32 -22
66 -8 94 38 10 18 38 47 62 64 45 32 54 50 44 89 -9 36 -83 54 -162 38z"/>
</g>
</svg>
